<svg width="118" height="44" viewBox="0 0 118 44" fill="none" xmlns="http://www.w3.org/2000/svg">
<g clip-path="url(#clip0_2502_6144)">
<path d="M104.773 13.3495C105.366 13.9411 105.764 15.088 105.845 15.9223C106.101 18.6095 105.622 21.64 105.881 24.3635C106.596 26.5512 109.406 26.8414 110.377 24.7039C110.622 21.8549 110.166 18.7379 110.411 15.9223C110.619 13.5225 112.719 11.6473 115.16 12.3645C118.484 13.3412 117.702 17.2366 117.761 19.8987C117.861 24.4974 118.181 29.1296 117.861 33.7311C117.582 37.741 114.985 41.2904 111.377 42.9731C107.955 44.5692 102.871 44.4743 100.093 41.5248C97.9908 39.2897 99.1964 35.0454 102.518 35.0565C104.08 35.0621 105.366 36.276 106.903 36.4908C108.746 36.7476 110.335 35.157 110.578 33.3823C110.617 33.1004 110.611 33.1116 110.358 33.1618C109.901 33.2483 109.445 33.4381 108.974 33.4743C104.135 33.8483 99.8534 30.9155 98.6535 26.1884C98.1384 24.157 98.2136 17.8589 98.3945 15.5819C98.6284 12.638 102.587 11.1702 104.776 13.3579L104.773 13.3495Z" fill="#559DD2"/>
<path d="M7.57258 12.9534C12.9542 11.2485 18.9065 14.6556 20.3069 20.111C21.6349 25.2845 19.0318 30.7119 13.9982 32.5341C7.17724 35.0037 0.634677 30.0534 0.127976 23.041C-0.270146 17.527 0.395247 11.5191 0.166953 5.95496C0.83513 2.57013 5.63765 1.92275 7.09372 5.0369C7.18281 5.22386 7.56979 6.32889 7.56979 6.42376V12.9507L7.57258 12.9534ZM9.89449 19.7733C6.72622 20.3007 6.43668 24.9357 9.52699 25.8258C11.9658 26.529 13.8172 24.6538 13.4776 22.2038C13.2576 20.6133 11.4035 19.5222 9.89449 19.7705V19.7733Z" fill="#61AE45"/>
<path d="M91.9744 19.9044C91.7879 23.0744 92.2222 26.5206 91.9828 29.6599C91.671 33.72 86.2058 34.4985 84.7804 30.7621L84.6941 10.3192C85.5766 3.87319 90.9081 -0.608288 97.473 0.0670037C100.229 0.351631 101.785 3.92342 100.012 6.17532C98.2664 8.39095 96.145 6.95386 94.1878 7.79658C92.3559 8.58628 91.8686 10.6066 91.8046 12.4455H94.5942C94.6499 12.4455 95.5102 12.6911 95.6466 12.7469C98.4056 13.8296 98.7871 18.1213 96.0141 19.4663C95.8443 19.55 94.8476 19.9044 94.7613 19.9044H91.9717H91.9744Z" fill="#559DD2"/>
<path d="M51.6752 30.4635C51.5248 31.2922 51.1545 32.0289 50.1857 32.5758C48.5125 33.519 46.1905 32.9414 45.1521 31.3257C44.3085 30.0142 44.6259 28.0413 44.6259 26.5429C44.6259 21.9079 44.6259 17.2757 44.6259 12.6408C44.6259 10.6316 44.6259 8.6253 44.6259 6.61617C45.2189 3.27878 49.2363 2.04818 51.3773 4.90561C52.6496 6.60501 52.1596 9.45128 52.0983 11.4325C52.0148 14.1253 51.948 16.8181 51.8506 19.5109C51.8366 19.8876 51.8255 20.2755 51.9731 20.6215C52.3433 21.4837 54.6318 22.106 55.4587 22.4967C56.2856 22.8874 57.118 23.2752 57.9449 23.6659C57.931 25.0527 59.0697 25.8369 60.4088 25.6611C61.5252 25.516 62.4078 24.4416 62.9033 23.5013C63.0815 23.3757 63.5047 23.4817 63.7274 23.5487C64.5932 23.811 68.6301 26.5931 69.457 27.2963C69.8969 27.6702 70.1781 27.9213 69.8913 28.552C69.2176 30.0449 66.9764 27.8627 66.1412 27.3967C65.9797 27.3074 65.5677 27.0144 65.4118 27.1093C65.1612 27.26 65.2113 27.4832 65.3255 27.7065C65.7236 28.4934 68.2348 29.2998 68.1262 30.4969C67.3021 32.2521 65.6178 30.3211 64.4875 29.7268C63.978 29.4589 63.5882 29.9668 63.7998 30.2514C64.1227 30.6839 65.8962 31.3731 66.0744 32.0568V32.3359C64.9914 33.9711 64.2257 32.3638 63.0425 31.8615C62.7697 31.2587 62.8003 30.7509 62.1934 30.3407C61.5168 29.883 60.6148 30.2179 60.3698 30.0477C60.161 29.8998 59.9745 29.1743 59.3341 28.9678C58.6381 28.7417 58.0869 29.124 57.75 29.0403C57.5217 28.9845 57.2878 28.5576 57.0206 28.4041C56.2939 27.9911 55.0105 27.9437 54.7516 28.8896L51.8812 27.5363C51.7392 28.538 51.8339 29.5566 51.6696 30.4662L51.6752 30.4635Z" fill="#307F74"/>
<path d="M34.5809 25.1059C35.1015 24.5506 35.2574 23.4595 35.3131 22.7033C35.4941 20.2086 34.7145 17.0973 35.3576 14.7812C36.2847 11.441 41.2098 11.3629 42.2566 14.5579C42.8162 16.2657 42.7187 21.2606 42.5879 23.214C41.7554 35.5841 24.9174 36.4714 22.537 25.1701C22.0943 23.0633 22.0609 17.6247 22.2864 15.4118C22.7013 11.3684 29.2912 10.8466 29.731 15.9225C29.9426 18.3669 29.5306 21.1099 29.7227 23.56C29.9064 25.9123 33.0135 26.7774 34.5809 25.1087V25.1059Z" fill="#61AE45"/>
<path d="M61.191 17.3623L66.3527 12.4483C69.0978 10.1099 73.1932 12.8613 71.8846 16.2992C71.2944 17.8479 69.2982 19.0589 68.1763 20.2226C67.5498 20.4012 64.1032 19.0701 63.0953 18.9306C61.6977 18.7408 61.063 19.3603 60.1804 20.3314C59.6626 20.9007 59.1447 22.3768 58.3624 22.6028C57.3908 22.8847 54.9018 21.3025 53.9525 20.909C53.2731 20.6272 53.5822 14.9374 53.5766 14.2203C53.5571 11.9042 53.5794 9.57975 53.7464 7.26645C54.1334 1.839 61.1493 2.43895 61.2523 7.73525C61.3135 10.9387 61.1966 14.1505 61.1966 17.3623H61.191Z" fill="#307F74"/>
<path d="M72.511 20.2533C72.8006 21.2941 73.9086 22.4326 74.1787 23.4232C74.2483 23.6828 74.2622 23.906 74.1342 24.1488C73.8919 24.6176 70.3617 25.7254 69.6936 26.1579L69.3177 26.0993C67.9674 25.198 66.6311 24.2269 65.2363 23.3981C64.1783 22.7675 63.5964 22.0699 62.3798 22.8847C61.5975 23.4093 61.2356 24.7906 60.0857 24.8408C59.2728 24.8743 58.6575 24.3887 58.9777 23.5544C59.2811 22.7703 60.9321 20.5826 61.6086 20.0803C62.6694 19.2962 64.4985 20.2477 65.7151 20.5435C66.4919 20.7305 67.6139 21.0988 68.3739 21.1127C69.7186 21.1406 71.1719 20.3705 72.5083 20.2589L72.511 20.2533Z" fill="#A9C131"/>
<path d="M66.9429 31.9424C68.2068 32.0986 69.1534 31.2252 68.9919 29.9276C70.2893 29.5844 71.1468 29.2049 70.7988 27.6534C70.7236 27.3186 70.3032 27.0981 70.6624 26.7716C71.751 25.781 72.9899 27.6702 73.1625 28.6747C73.6191 31.3368 71.3389 33.4129 68.7358 33.1116C68.0621 33.0334 67.0431 32.7265 66.9457 31.9424H66.9429Z" fill="#307F74"/>
<path d="M61.4807 33.4158C60.6121 34.1692 59.1337 33.4381 59.6182 32.3163C59.7072 32.1098 59.9077 32.1294 60.0079 31.9926C60.2752 31.6327 60.445 30.9881 61.116 30.9183C62.4858 30.7788 62.2936 32.7126 61.4835 33.4158H61.4807Z" fill="#A9C131"/>
<path d="M58.6047 29.7631C59.0696 29.6794 59.4789 30.1203 59.7628 30.4188L59.813 30.6393C59.3731 31.5741 59.0473 32.8075 57.7527 32.4196C56.4582 32.0317 57.7082 29.9249 58.6047 29.7631Z" fill="#A9C131"/>
<path d="M55.5561 29.0905C57.942 28.379 56.9509 32.1768 55.1106 30.9992C54.384 30.5332 54.9352 29.2775 55.5561 29.0905Z" fill="#A9C131"/>
<path d="M63.1957 32.6485C63.2235 32.668 63.4908 33.1117 63.5548 33.215C64.081 34.0577 62.6472 33.8205 62.2046 33.6363C62.1934 33.134 62.6361 32.2634 63.1957 32.6485Z" fill="#A9C131"/>
<path d="M82.3165 15.8079C82.3165 13.8137 80.7036 12.197 78.7139 12.197C76.7243 12.197 75.1113 13.8137 75.1113 15.8079V29.5537C75.1113 31.5479 76.7243 33.1646 78.7139 33.1646C80.7036 33.1646 82.3165 31.5479 82.3165 29.5537V15.8079Z" fill="#A6BE28"/>
<path d="M78.714 10.333C81.0896 10.333 83.0154 8.40276 83.0154 6.02171C83.0154 3.64067 81.0896 1.71045 78.714 1.71045C76.3384 1.71045 74.4126 3.64067 74.4126 6.02171C74.4126 8.40276 76.3384 10.333 78.714 10.333Z" fill="#A9C131"/>
</g>
<defs>
<clipPath id="clip0_2502_6144">
<rect width="118" height="44" fill="white"/>
</clipPath>
</defs>
</svg>
