<svg width="160" height="60" viewBox="0 0 160 60" fill="none" xmlns="http://www.w3.org/2000/svg">
<g clip-path="url(#clip0_2502_6129)">
<path d="M142.064 18.2013C142.87 19.008 143.411 20.5724 143.519 21.7087C143.865 25.3735 143.216 29.5057 143.568 33.2197C144.539 36.2057 148.346 36.5992 149.663 33.6871C149.995 29.8009 149.375 25.5506 149.707 21.7136C149.99 18.4423 152.836 15.8843 156.149 16.8632C160.659 18.1964 159.595 23.5042 159.678 27.1395C159.815 33.4116 160.244 39.7279 159.815 45.9999C159.439 51.4652 155.915 56.3057 151.02 58.603C146.379 60.7773 139.488 60.6494 135.72 56.6255C132.87 53.5805 134.505 47.7905 139.004 47.8053C141.123 47.8102 142.865 49.468 144.954 49.7631C147.452 50.1124 149.61 47.9479 149.937 45.5228C149.99 45.139 149.98 45.1538 149.639 45.2227C149.019 45.3407 148.399 45.5965 147.765 45.6457C141.205 46.1573 135.398 42.158 133.768 35.7089C133.07 32.9393 133.172 24.3503 133.416 21.2463C133.734 17.2322 139.102 15.2301 142.069 18.2111L142.064 18.2013Z" fill="white"/>
<path d="M10.2683 17.665C17.5645 15.3382 25.6368 19.9869 27.5353 27.4248C29.3361 34.479 25.8076 41.8776 18.9799 44.3667C9.73146 47.7314 0.858837 40.9773 0.175577 31.4192C-0.361271 23.8977 0.536728 15.7121 0.229261 8.12171C1.13702 3.50746 7.64751 2.622 9.62409 6.8673C9.74122 7.1231 10.2683 8.62839 10.2683 8.76121V17.6601V17.665ZM13.4162 26.9624C9.1214 27.6806 8.73097 34.0018 12.9184 35.2169C16.2273 36.1761 18.7359 33.6181 18.2771 30.278C17.9794 28.1086 15.466 26.6181 13.4162 26.9624Z" fill="white"/>
<path d="M124.71 27.1395C124.456 31.4635 125.046 36.1614 124.719 40.4412C124.295 45.9753 116.886 47.0379 114.954 41.9415L114.836 14.0691C116.032 5.27841 123.26 -0.831287 132.167 0.0886109C135.905 0.477231 138.014 5.34728 135.608 8.42181C133.201 11.4963 130.366 9.48436 127.711 10.6305C125.227 11.7079 124.568 14.4626 124.48 16.9665H128.262C128.336 16.9665 129.507 17.301 129.692 17.3748C133.436 18.8506 133.953 24.7045 130.19 26.5394C129.961 26.6525 128.609 27.1395 128.492 27.1395H124.71Z" fill="white"/>
<path d="M70.0684 41.538C69.8634 42.6694 69.3607 43.673 68.0479 44.4158C65.7785 45.6997 62.6306 44.9126 61.225 42.7088C60.083 40.9182 60.5125 38.2274 60.5125 36.1859V17.232C60.5125 14.492 60.5125 11.7569 60.5125 9.01689C61.3178 4.46659 66.7643 2.78913 69.6633 6.68517C71.3861 9.00214 70.7272 12.8834 70.6394 15.5841C70.5223 19.2538 70.4344 22.9285 70.3026 26.5983C70.2831 27.1099 70.2685 27.6411 70.4686 28.1134C70.9713 29.2891 74.0703 30.1401 75.1977 30.6714C76.3251 31.2027 77.4476 31.734 78.5701 32.2652C78.5506 34.1542 80.0928 35.2266 81.9132 34.9856C83.4261 34.7888 84.6218 33.3229 85.2953 32.0439C85.5393 31.8717 86.1103 32.0193 86.4129 32.1078C87.5891 32.462 93.0601 36.2597 94.1826 37.2189C94.778 37.7305 95.1587 38.0699 94.7731 38.9308C93.8605 40.9674 90.82 37.9912 89.6877 37.3566C89.4681 37.2337 88.9117 36.8352 88.697 36.9631C88.3553 37.1697 88.4285 37.4698 88.5798 37.7748C89.1167 38.8472 92.5281 39.9491 92.3768 41.5823C91.2592 43.9779 88.9752 41.3462 87.4427 40.5345C86.7497 40.1705 86.2226 40.8641 86.5105 41.2527C86.9449 41.843 89.3558 42.7826 89.595 43.7123V44.0911C88.126 46.3244 87.0864 44.1304 85.4857 43.4417C85.1147 42.6202 85.1587 41.9266 84.3339 41.3658C83.4163 40.7411 82.1914 41.1986 81.8644 40.9674C81.5813 40.7657 81.3275 39.7769 80.4588 39.4965C79.512 39.1915 78.7653 39.708 78.3065 39.5949C77.9991 39.5162 77.6818 38.9357 77.3158 38.7291C76.33 38.1683 74.5925 38.0995 74.2411 39.3883L70.3514 37.5436C70.1562 38.9111 70.288 40.2984 70.0635 41.538H70.0684Z" fill="white"/>
<path d="M46.8913 34.2331C47.5989 33.4755 47.8088 31.9899 47.882 30.9569C48.126 27.5528 47.0718 23.3124 47.9406 20.1542C49.1948 15.599 55.8761 15.4957 57.2963 19.8492C58.0528 22.1809 57.921 28.9892 57.7453 31.6554C56.618 48.5235 33.7873 49.7336 30.5565 34.3216C29.9562 31.4488 29.9122 24.0355 30.2197 21.0151C30.781 15.5006 39.717 14.7873 40.3124 21.7136C40.6004 25.0439 40.0391 28.7875 40.3027 32.1276C40.5662 35.4678 44.7683 36.5156 46.8913 34.238V34.2331Z" fill="white"/>
<path d="M82.9721 23.6762L89.9706 16.9762C93.6895 13.7885 99.2434 17.5419 97.4718 22.225C96.6715 24.3354 93.9628 25.9882 92.445 27.5772C91.5958 27.8182 86.9204 26.003 85.5538 25.8161C83.6602 25.5553 82.7964 26.4015 81.6007 27.7247C80.8979 28.502 80.1951 30.5139 79.1361 30.8239C77.8184 31.2076 74.446 29.0529 73.1575 28.5118C72.2351 28.1281 72.6597 20.3705 72.65 19.3915C72.6207 16.2334 72.65 13.0654 72.8794 9.91215C73.4064 2.51361 82.9135 3.33021 83.0551 10.5517C83.138 14.9199 82.9818 19.2981 82.9818 23.6762H82.9721Z" fill="white"/>
<path d="M98.3211 27.6166C98.7115 29.0334 100.215 30.5878 100.581 31.9357C100.678 32.2899 100.693 32.59 100.522 32.9245C100.195 33.564 95.4074 35.0742 94.4997 35.6645L93.9921 35.5809C92.162 34.3511 90.3513 33.0278 88.4577 31.8964C87.0229 31.0355 86.2322 30.0861 84.5875 31.1929C83.5285 31.9062 83.0355 33.7903 81.4787 33.8591C80.3757 33.9083 79.5412 33.2442 79.9755 32.1079C80.3855 31.0404 82.6256 28.0544 83.5431 27.3706C84.978 26.2983 87.4621 27.5969 89.1117 28.0003C90.161 28.2561 91.6837 28.7579 92.7183 28.7776C94.5387 28.812 96.5104 27.7642 98.3211 27.6166Z" fill="white"/>
<path d="M90.771 43.555C92.484 43.7714 93.7676 42.576 93.548 40.8051C95.3098 40.3378 96.4665 39.8164 95.9979 37.7011C95.8954 37.2436 95.3244 36.9435 95.8125 36.5008C97.2864 35.148 98.9701 37.7257 99.2044 39.0981C99.8242 42.7285 96.73 45.5571 93.2014 45.1488C92.2888 45.0406 90.9076 44.6274 90.771 43.555Z" fill="white"/>
<path d="M83.3626 45.5669C82.1815 46.5951 80.1806 45.5965 80.8345 44.0666C80.9566 43.7813 81.0102 43.6091 81.1469 43.4222C81.508 42.9302 81.957 42.2514 82.8648 42.1579C84.7194 41.971 84.4607 44.6028 83.3626 45.562V45.5669Z" fill="white"/>
<path d="M79.4679 40.5838C80.0682 40.4756 80.6002 41.0167 80.9809 41.4201C81.0199 41.4595 81.0443 41.5087 81.0541 41.5579C81.0834 41.6956 81.0736 41.8432 81.015 41.976C80.4587 43.2156 79.9755 44.7062 78.3113 44.2044C76.5543 43.678 78.2478 40.8003 79.4679 40.5838Z" fill="white"/>
<path d="M75.3295 39.6687C78.5653 38.6996 77.2183 43.8796 74.7244 42.271C73.7385 41.6364 74.4852 39.9245 75.3295 39.6687Z" fill="white"/>
<path d="M85.6856 44.5191C85.7247 44.5437 86.0858 45.1537 86.1737 45.2914C86.8862 46.4425 84.9438 46.113 84.3435 45.867C84.3289 45.1832 84.9292 43.9928 85.6856 44.524V44.5191Z" fill="white"/>
<path d="M111.615 21.5562C111.615 18.8367 109.428 16.6321 106.73 16.6321C104.032 16.6321 101.845 18.8367 101.845 21.5562V40.2986C101.845 43.0181 104.032 45.2227 106.73 45.2227C109.428 45.2227 111.615 43.0181 111.615 40.2986V21.5562Z" fill="white"/>
<path d="M106.73 14.0937C109.951 14.0937 112.562 11.4618 112.562 8.21517C112.562 4.96856 109.951 2.33667 106.73 2.33667C103.509 2.33667 100.898 4.96856 100.898 8.21517C100.898 11.4618 103.509 14.0937 106.73 14.0937Z" fill="white"/>
</g>
<defs>
<clipPath id="clip0_2502_6129">
<rect width="160" height="60" fill="white"/>
</clipPath>
</defs>
</svg>
